# Made in Blockbench 4.8.3
mtllib JumpPlataform.mtl

o tube
v -2.540668714406038 0 -1.0523794390039984
v -2.540668714406038 0.125 -1.0523794390039984
v -1.9055015358045284 0 -0.7892845792529989
v -1.9055015358045284 0.125 -0.7892845792529989
v -2.6562960222949377 0 -0.7117523740319317
v -2.6562960222949377 0.125 -0.7117523740319317
v -1.9922220167212035 0 -0.5338142805239487
v -1.9922220167212035 0.125 -0.5338142805239487
v -2.7264733687779787 0 -0.358947028605142
v -2.7264733687779787 0.125 -0.358947028605142
v -2.044855026583484 0 -0.2692102714538565
v -2.044855026583484 0.125 -0.2692102714538565
v -2.75 0 -5.051668046482832e-16
v -2.75 0.125 -5.051668046482832e-16
v -2.0625 0 -3.788751034862124e-16
v -2.0625 0.125 -3.788751034862124e-16
v -2.7264733687779787 0 0.358947028605141
v -2.7264733687779787 0.125 0.358947028605141
v -2.044855026583484 0 0.2692102714538558
v -2.044855026583484 0.125 0.2692102714538558
vt 0 0.5
vt 0.0654 0.5
vt 0.0654 1
vt 0 1
vt 0.04905 1
vt 0 1
vt 0 0.5
vt 0.04905 0.5
vt 0.12473037873258919 0.9427730596716034
vt 0.12473037873258919 0.9918266627662029
vt 0 1
vt 6.697074308448236e-7 0.9345971686307543
vt 0.06540283137267454 1
vt 0 1
vt 0.008174614438953468 0.8752697049667284
vt 0.05722821753098127 0.8752702072624519
vt 0 0.5
vt 0.0654 0.5
vt 0.0654 1
vt 0 1
vt 0.04905 1
vt 0 1
vt 0 0.5
vt 0.04905 0.5
vt 0.12473238578173629 0.9427730441464983
vt 0.12473238578173623 0.991821716560999
vt 0 1
vt 0.0000024608846491136482 0.93459278403575
vt 0.06540721601054428 1
vt 0 1
vt 0.008182976371272584 0.8752679220067279
vt 0.05723164875105735 0.8752697674166439
vt 0 0.5
vt 0.0654 0.5
vt 0.0654 1
vt 0 1
vt 0.04905 1
vt 0 1
vt 0 0.5
vt 0.04905 0.5
vt 0.12473271493979621 0.9427750503468109
vt 0.12473271493979621 0.9918299434672988
vt 0 1
vt 2.7233521771030667e-7 0.934597633596514
vt 0.065402366404053 1
vt 0 1
vt 0.008170575919205305 0.8752673190813711
vt 0.05722546903926802 0.875267523345769
vt 0 0.5
vt 0.0654 0.5
vt 0.0654 1
vt 0 1
vt 0.04905 1
vt 0 1
vt 0 0.5
vt 0.04905 0.5
vt 0.008170056532701173 0.8752672850602038
vt 0.05722494965318917 0.8752672850602038
vt 0.06540236640348598 0.9999997276647823
vt 0 1
vt 0 1
vt 5.551115123125783e-17 0.9345976335959469
vt 0.12473247665423098 0.942774530960732
vt 0.12473268091862894 0.9918294240807948
vt 0.6875 1
vt 0 1
vt 0 0.875
vt 0.6875 0.875
vt 0.6875 1
vt 0 1
vt 0 0.875
vt 0.6875 0.875
vn -0.946930129495106 0 -0.32143946530316103
vn 0.9469301294951056 0 0.321439465303162
vn 0 -1 0
vn 0 1 0
vn -0.9807852804032304 0 -0.19509032201612922
vn 0.9807852804032307 0 0.19509032201612805
vn 0 -1 0
vn 0 1 0
vn -0.9978589232386037 0 -0.06540312923014283
vn 0.9978589232386036 0 0.06540312923014324
vn 0 -1 0
vn 0 1 0
vn -0.9978589232386037 0 0.06540312923014283
vn 0.9978589232386036 0 -0.06540312923014323
vn 0 -1 0
vn 0 1 0
vn 0.38268343236509034 0 -0.9238795325112867
vn 0.13052619222005118 0 0.9914448613738105
usemtl none
f 1/1/1 5/2/1 6/3/1 2/4/1
f 4/5/2 8/6/2 7/7/2 3/8/2
f 3/9/3 7/10/3 5/11/3 1/12/3
f 2/13/4 6/14/4 8/15/4 4/16/4
f 5/17/5 9/18/5 10/19/5 6/20/5
f 8/21/6 12/22/6 11/23/6 7/24/6
f 7/25/7 11/26/7 9/27/7 5/28/7
f 6/29/8 10/30/8 12/31/8 8/32/8
f 9/33/9 13/34/9 14/35/9 10/36/9
f 12/37/10 16/38/10 15/39/10 11/40/10
f 11/41/11 15/42/11 13/43/11 9/44/11
f 10/45/12 14/46/12 16/47/12 12/48/12
f 13/49/13 17/50/13 18/51/13 14/52/13
f 16/53/14 20/54/14 19/55/14 15/56/14
f 15/57/15 19/58/15 17/59/15 13/60/15
f 14/61/16 18/62/16 20/63/16 16/64/16
f 2/65/17 4/66/17 3/67/17 1/68/17
f 20/69/18 18/70/18 17/71/18 19/72/18